<svg preserveAspectRatio="none" width="100%" height="100%" overflow="visible" style="display: block;" viewBox="0 0 18.03 18.3894" fill="none" xmlns="http://www.w3.org/2000/svg">
<g id="SVG" clip-path="url(#clip0_0_4)">
<path id="Vector" d="M18.0278 9.40597C18.0291 8.77973 17.976 8.15456 17.869 7.53752H9.19575V11.0785H14.1625C14.0607 11.6442 13.8453 12.1834 13.5294 12.6636C13.2135 13.1439 12.8036 13.5552 12.3245 13.8727V16.1703H15.2877C17.0277 14.5687 18.0278 12.2036 18.0278 9.40597Z" fill="var(--fill-0, #4285F4)"/>
<path id="Vector_2" d="M9.1963 18.3899C11.6763 18.3899 13.7678 17.5756 15.2916 16.17L12.3284 13.8725C11.504 14.4333 10.4397 14.7509 9.19968 14.7509C6.80076 14.7509 4.76674 13.1325 4.03693 10.9566H0.97915V13.3251C1.74494 14.8479 2.91885 16.1279 4.36984 17.0222C5.82083 17.9165 7.49182 18.39 9.1963 18.3899Z" fill="var(--fill-0, #34A853)"/>
<path id="Vector_3" d="M4.03362 10.957C3.64841 9.81504 3.64841 8.57826 4.03362 7.43632V5.06781H0.979216C0.33601 6.34911 0.00105434 7.76297 0.00105434 9.19665C0.00105434 10.6303 0.33601 12.0442 0.979216 13.3255L4.03362 10.957Z" fill="var(--fill-0, #FBBC04)"/>
<path id="Vector_4" d="M9.19636 3.63893C10.5075 3.61779 11.7744 4.1129 12.7238 5.01746L15.3491 2.39216C13.6842 0.829964 11.4793 -0.0272929 9.19636 4.15194e-07C7.49146 -0.000208794 5.82008 0.473662 4.36899 1.36866C2.9179 2.26366 1.74426 3.54453 0.979216 5.06814L4.03362 7.43665C4.76005 5.25735 6.79744 3.63893 9.19636 3.63893Z" fill="var(--fill-0, #EA4335)"/>
</g>
<defs>
<clipPath id="clip0_0_4">
<rect width="18.03" height="18.3894" fill="white"/>
</clipPath>
</defs>
</svg>
