<svg preserveAspectRatio="none" width="100%" height="100%" overflow="visible" style="display: block;" viewBox="0 0 28.17 35.4117" fill="none" xmlns="http://www.w3.org/2000/svg">
<g id="SVG">
<path id="Vector" d="M9.25622 25.5528C10.4232 24.7883 11.6707 24.0237 13.0791 23.8627C14.4875 23.7018 16.0971 24.3456 16.5398 25.6736C17.1434 27.3637 15.6545 29.0538 14.2058 30.1C12.8376 31.106 11.3487 31.9511 9.69887 32.3535C8.04901 32.7559 6.23818 32.6352 4.74928 31.8304C3.01893 30.8646 1.97268 29.0135 1.57027 27.082C1.16787 25.1504 1.40931 23.1787 1.73123 21.2471C2.97869 14.4867 5.83577 7.92747 10.5439 2.93764C11.5499 1.85115 12.9986 0.764651 14.407 1.32802C15.7752 1.89139 16.0971 3.66197 16.0569 5.15087C15.9362 9.69806 14.7289 14.1648 12.556 18.1486C12.2743 18.6315 11.9926 19.1546 11.5097 19.4765C11.0268 19.7984 10.383 19.9192 9.90007 19.6375C9.01478 19.0741 9.37694 17.6657 10.0208 16.8206C11.389 14.8891 13.3205 13.4404 15.574 12.6356C17.1434 12.0723 19.0347 11.9515 20.2821 12.9978C21.2479 13.8428 21.5698 15.211 21.3686 16.4585C21.1674 17.7059 20.4833 18.8327 19.7188 19.8387C19.1554 20.563 18.2299 21.2873 17.4653 20.8045C16.58 20.2813 17.0227 18.9132 17.6263 18.0681C18.7128 16.4585 20.1614 14.7684 22.093 14.5269C24.1855 14.2855 26.1573 15.8549 26.8414 17.8267C27.5254 19.7984 27.123 21.9714 26.2377 23.8627C24.6281 27.4442 21.4089 30.261 17.6263 31.3877" stroke="var(--stroke-0, #030A12)" stroke-opacity="0.87" stroke-width="1.52914"/>
</g>
</svg>
