<svg preserveAspectRatio="none" width="100%" height="100%" overflow="visible" style="display: block;" viewBox="0 0 80.5 101.195" fill="none" xmlns="http://www.w3.org/2000/svg">
<g id="SVG">
<path id="Vector" d="M26.4507 73.0214C29.7855 70.8365 33.3503 68.6516 37.3751 68.1916C41.3999 67.7317 45.9997 69.5716 47.2647 73.3664C48.9896 78.1961 44.7348 83.0259 40.595 86.0158C36.6852 88.8906 32.4304 91.3055 27.7156 92.4554C23.0009 93.6054 17.8261 93.2604 13.5713 90.9605C8.62656 88.2006 5.63671 82.9109 4.48677 77.3912C3.33682 71.8715 4.02679 66.2367 4.94674 60.717C8.51157 41.398 16.6762 22.6539 30.1305 8.39458C33.0054 5.28974 37.1452 2.18489 41.17 3.79481C45.0798 5.40473 45.9997 10.4645 45.8847 14.7193C45.5397 27.7136 42.0899 40.478 35.8802 51.8624C35.0753 53.2424 34.2703 54.7373 32.8904 55.6573C31.5104 56.5772 29.6705 56.9222 28.2906 56.1172C25.7607 54.5073 26.7957 50.4825 28.6356 48.0676C32.5454 42.5479 38.0651 38.4081 44.5048 36.1082C48.9896 34.4983 54.3943 34.1533 57.9591 37.1432C60.719 39.558 61.6389 43.4679 61.064 47.0327C60.489 50.5975 58.5341 53.8173 56.3492 56.6922C54.7393 58.7621 52.0944 60.832 49.9095 59.4521C47.3797 57.9571 48.6446 54.0473 50.3695 51.6325C53.4743 47.0327 57.6141 42.2029 63.1339 41.5129C69.1136 40.823 74.7483 45.3078 76.7032 50.9425C78.6581 56.5772 77.5082 62.7869 74.9783 68.1916C70.3785 78.4261 61.179 86.4757 50.3695 89.6956" stroke="var(--stroke-0, #030A12)" stroke-opacity="0.87" stroke-width="3.44983"/>
</g>
</svg>
