<svg preserveAspectRatio="none" width="100%" height="100%" overflow="visible" style="display: block;" viewBox="0 0 22.493 31.4031" fill="none" xmlns="http://www.w3.org/2000/svg">
<g id="Group">
<path id="Vector" fill-rule="evenodd" clip-rule="evenodd" d="M15.9099 31.4024C10.092 21.606 1.74232 6.26532 0.327942 3.66756L0.1207 3.28773C-0.24593 2.60034 0.165582 2.39904 2.14855 1.42719C2.69041 1.16055 3.35074 0.837152 4.14538 0.429932L4.17442 0.414752C5.38783 -0.206638 5.40499 -0.215878 6.14353 0.984332C18.2836 20.6979 19.3356 22.5993 20.5154 24.4176C20.9585 25.1011 21.4199 25.772 22.493 27.3705C22.1155 27.4924 21.7423 27.6276 21.3743 27.776C21.1839 27.512 21.0952 27.4345 20.9952 27.418C20.9463 27.4101 20.8952 27.416 20.8285 27.422C19.1142 27.5734 17.1668 27.1283 15.9152 26.8425C15.0383 26.6432 14.5037 26.5204 14.6308 26.7365C15.6578 28.476 16.3379 29.6537 16.8045 30.455C16.4983 30.7355 16.1996 31.0539 15.9092 31.4031L15.9099 31.4024ZM1.40176 3.26265C1.3747 3.40884 1.46776 3.57813 1.59349 3.8715C2.03536 4.90506 2.70229 5.48916 3.83914 5.6799C4.6879 5.82279 5.51389 6.03003 6.21316 6.20526C7.57078 6.54615 8.44957 6.76692 8.08294 6.16104C5.56801 2.00568 5.23372 1.20246 4.91164 1.20774C4.83937 1.2084 4.76677 1.2513 4.67074 1.30509C2.18419 2.70132 1.46578 2.92077 1.40209 3.26232L1.40176 3.26265ZM3.52696 7.29954C3.86719 7.89981 4.57372 9.14556 6.1432 12.0522H6.14254C6.36232 12.4604 11.0572 13.5111 12.4422 13.4524C12.3429 13.091 12.3152 13.0501 12.2571 12.9633C11.5308 11.8199 10.819 10.6672 10.122 9.50559C8.95678 7.57278 8.87098 7.43121 8.1991 7.47312C8.03179 7.48368 8.01067 7.47972 7.23121 7.31505C6.65239 7.19394 5.65513 6.98406 3.86785 6.627C3.56227 6.56628 3.30223 6.90288 3.45964 7.1814L3.52663 7.29921L3.52696 7.29954ZM14.5255 17.3843C13.6992 16.1597 12.7722 14.7879 12.6039 14.2979C11.1041 14.4044 9.37159 13.9956 7.50643 13.556L7.00417 13.4375C7.03321 13.656 9.00232 18.4225 11.1602 18.803C11.538 18.87 12.0759 18.9895 12.6548 19.1172C14.0886 19.4333 15.7706 19.8052 15.8851 19.5769C15.9406 19.4802 15.2743 18.4931 14.5255 17.3847V17.3843ZM10.7467 20.2002C10.7144 20.2811 10.8434 20.426 13.6685 25.1766C13.7995 25.3964 13.9906 25.4373 14.2084 25.4835C14.905 25.631 15.5475 25.7759 16.1405 25.9089C18.0991 26.3501 19.5244 26.6699 20.6101 26.5917C20.6101 26.5772 17.0952 20.9035 16.4682 20.6711C16.2643 20.6117 15.9726 20.5844 15.6079 20.5982C13.1247 20.6942 11.8928 20.3593 11.2892 20.1946C10.9457 20.1012 10.8048 20.063 10.752 20.19L10.7467 20.2002Z" fill="var(--fill-0, #383E45)"/>
</g>
</svg>
