<svg preserveAspectRatio="none" width="100%" height="100%" overflow="visible" style="display: block;" viewBox="0 0 144.9 189.563" fill="none" xmlns="http://www.w3.org/2000/svg">
<g id="sl-find-a-way.svg">
<path id="Vector" d="M91.2444 29.1958C96.2203 27.0976 106.712 21.8219 106.292 15.1674C105.872 8.51295 90.2253 10.7311 85.9089 11.3906C85.8342 11.3831 85.7589 11.3932 85.6888 11.4201C85.6188 11.447 85.5561 11.49 85.5057 11.5455C85.4553 11.6011 85.4186 11.6677 85.3986 11.74C85.3787 11.8123 85.3759 11.8883 85.3906 11.9618C85.4053 12.0354 85.4371 12.1045 85.4834 12.1635C85.5296 12.2226 85.5891 12.2699 85.657 12.3018C85.7249 12.3337 85.7993 12.3493 85.8743 12.3472C85.9492 12.3451 86.0227 12.3254 86.0887 12.2898C89.5059 11.8102 101.916 10.6712 104.374 13.5488C107.911 17.5655 98.978 23.7403 96.1604 25.299C85.5491 31.1142 53.7155 41.1259 42.6247 34.0518C35.1309 29.3157 50.4182 22.5413 53.8954 21.3423C54.7347 21.0426 54.1352 19.8436 53.2959 20.1433C47.1809 22.2416 32.8528 30.215 42.265 35.3707C53.8954 41.6055 80.873 33.5722 91.2444 29.1958Z" fill="var(--fill-0, #383E45)"/>
<path id="Vector_2" d="M85.1895 17.2657C85.4293 17.6254 86.0887 17.3856 85.9089 16.9659C84.7472 13.9341 83.1519 11.0868 81.1728 8.51295C78.8947 5.69528 71.8805 5.39553 68.5233 5.99504C64.799 6.52739 61.2824 8.03747 58.3317 10.3714C55.0944 12.8294 55.7538 20.6229 55.574 24.6995C55.514 26.618 57.912 28.0568 60.0103 28.4764C66.0053 29.6155 81.2327 26.0784 85.0695 21.1025C85.4292 20.6829 84.7698 20.0834 84.3501 20.4431C79.8539 25.1192 57.6123 30.8744 56.9528 24.5197C56.6531 21.702 57.1926 18.8244 57.3125 15.9468C61.0894 18.9443 71.221 16.3664 75.0578 14.508C80.933 11.6903 79.0745 9.47216 78.0554 10.851C75.4175 14.6878 63.7272 17.0259 58.9312 15.2274C57.4924 14.6279 57.3125 13.309 58.3916 12.11C60.4899 9.71196 64.4466 8.03335 68.4633 7.31394C72.3076 6.53114 76.3038 7.08088 79.7939 8.87265C81.2327 9.65201 83.9305 15.2873 85.1895 17.2657Z" fill="var(--fill-0, #383E45)"/>
<path id="Vector_3" d="M95.0213 36.4498C95.1412 40.9461 96.1004 41.006 98.6783 42.5648C101.256 44.1235 99.8773 48.6797 98.6183 50.8978C98.3186 51.4374 99.038 51.7971 99.3977 51.4374C100.3 50.7184 101.016 49.793 101.486 48.7391C101.955 47.6853 102.164 46.534 102.095 45.3824C101.616 40.2866 96.9997 41.6055 96.58 38.0085C96.3402 35.9103 96.9997 31.7737 92.983 30.0951C92.8081 30.0076 92.6056 29.9932 92.4201 30.0551C92.2346 30.1169 92.0813 30.2499 91.9938 30.4248C91.9064 30.5997 91.892 30.8022 91.9538 30.9877C92.0156 31.1732 92.1486 31.3265 92.3235 31.414C94.4218 32.4331 94.9614 34.2317 95.0213 36.4498Z" fill="var(--fill-0, #383E45)"/>
<path id="Vector_4" d="M60.43 40.0468C62.2285 44.663 67.8638 54.0153 72.8397 55.6939C72.8599 58.0384 72.5779 60.3757 72.0004 62.6481C71.8805 63.3076 72.9596 63.6073 73.2593 62.9479C73.919 60.6907 74.2224 58.3444 74.1586 55.9936C78.5949 56.713 82.7315 53.3558 82.7914 49.5789C82.8096 49.4446 82.7765 49.3083 82.6988 49.1972C82.621 49.0861 82.5043 49.0083 82.3718 48.9794C82.3088 48.9616 82.2428 48.9568 82.1778 48.9654C82.1129 48.9741 82.0504 48.9959 81.9942 49.0296C81.938 49.0633 81.8894 49.1082 81.8512 49.1614C81.813 49.2146 81.7862 49.2751 81.7723 49.3391C79.5541 55.4541 74.0986 56.1735 70.1419 52.2767C66.6024 48.5221 63.7422 44.1811 61.6889 39.4473C61.6063 39.3225 61.4869 39.2265 61.3472 39.1728C61.2075 39.1191 61.0545 39.1103 60.9096 39.1476C60.8189 39.175 60.7346 39.22 60.6614 39.2801C60.5882 39.3402 60.5276 39.4141 60.4831 39.4976C60.4385 39.5812 60.4109 39.6727 60.4018 39.7669C60.3926 39.8612 60.4022 39.9563 60.43 40.0468Z" fill="var(--fill-0, #383E45)"/>
<path id="Vector_5" d="M89.0263 57.1926C89.0862 57.6722 90.1653 57.4924 90.1653 56.8329C89.5658 51.1976 87.9472 45.9819 85.8489 39.807C88.3069 38.668 88.7865 35.3108 87.6474 32.8528C87.4076 32.2533 86.3885 32.4331 86.6283 33.0326C87.3477 35.011 87.1678 37.469 85.0695 38.4282C82.9713 39.3874 86.2086 40.7063 89.0263 57.1926Z" fill="var(--fill-0, #383E45)"/>
<path id="Vector_6" d="M37.5289 73.619C35.5506 76.7365 37.1093 80.6932 39.5672 83.0312C39.6879 83.1422 39.8428 83.2086 40.0063 83.2195C40.1698 83.2304 40.3322 83.1851 40.4665 83.0912C40.5533 83.0363 40.6284 82.9648 40.6875 82.8807C40.7466 82.7967 40.7885 82.7018 40.8108 82.6015C40.8331 82.5012 40.8353 82.3975 40.8174 82.2964C40.7995 82.1952 40.7617 82.0986 40.7063 82.0121C39.4473 80.3934 38.1884 78.7148 38.3083 76.5566C38.4881 72.7198 43.9436 71.5208 46.0419 68.7631C48.1401 66.0053 46.6414 63.1277 46.6414 60.4899C46.5215 54.2551 54.9745 56.3533 54.7347 50.9578C54.6148 47.7804 51.1976 45.5023 53.6556 40.6463C53.6921 40.5369 53.6925 40.4186 53.6568 40.3088C53.6212 40.1991 53.5512 40.1037 53.4573 40.0366C53.3634 39.9695 53.2505 39.9343 53.1351 39.9362C53.0197 39.938 52.908 39.9768 52.8163 40.0468C52.2279 40.8255 51.8069 41.7174 51.5799 42.6666C51.353 43.6158 51.3248 44.6017 51.4974 45.5623C51.7971 47.5406 53.5357 49.3991 53.2359 51.4374C52.9362 53.4757 50.718 53.7755 49.2792 54.4349C42.5048 57.5523 46.1618 62.5282 45.3225 66.5449C44.6031 69.5424 39.5672 70.5616 37.5289 73.619Z" fill="var(--fill-0, #383E45)"/>
<path id="Vector_7" d="M67.2043 41.6055C67.3242 39.4473 65.6456 39.0277 65.5257 39.9869C65.226 42.265 67.1444 43.1643 67.2043 41.6055Z" fill="var(--fill-0, #383E45)"/>
<path id="Vector_8" d="M79.0745 44.7829C79.0748 44.6753 79.0529 44.5688 79.01 44.4701C78.9671 44.3715 78.9043 44.2827 78.8255 44.2095C78.7466 44.1363 78.6535 44.0802 78.5519 44.0448C78.4503 44.0093 78.3425 43.9953 78.2352 44.0036C78.1219 44.0022 78.0097 44.0256 77.9064 44.072C77.8031 44.1184 77.7112 44.1868 77.637 44.2724C77.5628 44.358 77.5082 44.4588 77.4769 44.5676C77.4456 44.6765 77.4384 44.7909 77.4559 44.9028C77.6957 46.7013 76.5566 47.7205 75.2976 48.5598C74.0387 49.3991 75.0578 49.519 75.8372 49.459C76.8585 49.216 77.7539 48.6042 78.3515 47.741C78.949 46.8779 79.2065 45.8244 79.0745 44.7829Z" fill="var(--fill-0, #383E45)"/>
<path id="Vector_9" d="M73.0795 45.3824C72.8397 44.3033 71.6407 45.4424 69.6623 45.1426C71.5208 41.066 69.6024 40.4065 69.4225 41.3657C69.2397 42.3975 68.9996 43.4182 68.7031 44.4232C67.6839 47.5406 73.3792 46.8212 73.0795 45.3824Z" fill="var(--fill-0, #383E45)"/>
<path id="Vector_10" d="M75.6573 39.5672C76.1369 37.2292 74.2185 36.4498 74.0387 37.5889C73.8588 38.7279 75.4175 40.7063 75.6573 39.5672Z" fill="var(--fill-0, #383E45)"/>
<path id="Vector_11" d="M17.6254 113.546C16.3664 112.587 16.3065 111.388 15.4072 111.987C14.508 112.587 17.3257 116.783 21.1625 115.824C21.762 115.644 21.6421 114.505 21.0426 114.505C20.4379 114.579 19.8246 114.532 19.2381 114.367C18.6516 114.202 18.1035 113.923 17.6254 113.546Z" fill="var(--fill-0, #383E45)"/>
<path id="Vector_12" d="M94.242 117.083C94.165 117.161 94.117 117.263 94.1061 117.372C94.0952 117.481 94.122 117.591 94.182 117.683C97.3594 121.04 100.956 119.301 102.815 128.294C103.115 129.613 104.673 128.174 102.755 123.198C109.05 121.399 117.383 116.004 121.34 110.848C121.699 110.429 121.04 109.829 120.62 110.189C116.004 114.985 108.27 120.56 102.095 121.819C100.777 119.781 96.3402 117.263 94.5417 117.023L94.242 117.083Z" fill="var(--fill-0, #383E45)"/>
<path id="Vector_13" d="M93.3427 127.215C96.2803 126.975 97.1196 125.596 96.2203 125.536C95.232 125.564 94.2485 125.684 93.2828 125.896C89.7457 126.136 87.4076 122.419 85.3693 122.059C83.331 121.699 89.4459 127.574 93.3427 127.215Z" fill="var(--fill-0, #383E45)"/>
<path id="Vector_14" d="M19.0043 120.5C18.5846 120.56 18.4647 121.04 18.5247 121.399C18.5846 121.759 21.702 123.318 23.0209 122.898C24.3398 122.479 23.8003 121.639 22.8411 121.639C20.0834 121.759 19.7836 120.44 19.0043 120.5Z" fill="var(--fill-0, #383E45)"/>
<path id="Vector_15" d="M20.563 112.407C21.1625 112.347 21.4023 111.328 20.7428 111.208C15.3473 110.369 15.5271 106.412 14.8077 105.633C14.0883 104.853 13.9085 105.393 13.9085 105.752C13.8491 105.927 13.8491 106.117 13.9085 106.292C13.9392 107.132 14.1363 107.957 14.4883 108.721C14.8403 109.484 15.3403 110.17 15.9592 110.739C16.5781 111.307 17.3037 111.748 18.0939 112.034C18.8842 112.32 19.7234 112.447 20.563 112.407Z" fill="var(--fill-0, #383E45)"/>
<path id="Vector_16" d="M87.3477 138.066C92.983 140.344 99.3977 136.387 103.474 133.689C107.551 130.992 118.882 131.831 133.869 120.74C141.663 115.045 139.325 108.87 134.349 101.916C134.275 101.854 134.188 101.811 134.094 101.79C134 101.769 133.902 101.771 133.809 101.796C133.691 101.837 133.593 101.922 133.537 102.034C133.481 102.146 133.471 102.276 133.509 102.395C135.728 107.911 140.883 113.426 134.229 118.522C117.563 131.351 106.352 129.673 101.856 133.21C99.8503 134.85 97.5222 136.05 95.0227 136.732C92.5232 137.414 89.9082 137.562 87.3477 137.166C86.8681 137.106 86.928 137.946 87.3477 138.066Z" fill="var(--fill-0, #383E45)"/>
<path id="Vector_17" d="M17.9851 118.342C18.4842 118.866 19.1137 119.248 19.8091 119.448C20.5045 119.648 21.2406 119.659 21.9418 119.481C22.8411 119.181 23.0809 117.982 21.762 118.162C20.6007 118.184 19.4641 117.826 18.5247 117.143C17.7453 116.364 16.7861 117.023 17.9851 118.342Z" fill="var(--fill-0, #383E45)"/>
<path id="Vector_18" d="M85.6691 132.43C85.5356 132.416 85.401 132.443 85.2831 132.507C85.1653 132.571 85.0699 132.67 85.0096 132.79C84.9484 132.933 84.9455 133.095 85.0015 133.24C85.0574 133.386 85.1679 133.504 85.3094 133.569C87.9472 135.248 92.8631 134.948 95.5609 133.449C96.1604 133.15 95.6208 132.31 95.0813 132.43C90.2852 133.809 89.9255 133.27 85.6691 132.43Z" fill="var(--fill-0, #383E45)"/>
<path id="Vector_19" d="M83.1511 126.555C80.5133 126.136 87.7673 133.569 95.9805 130.212C96.1604 130.152 96.2203 129.972 96.2803 129.793C96.2803 129.722 96.2663 129.651 96.2392 129.586C96.2121 129.521 96.1723 129.461 96.1222 129.411C96.0721 129.361 96.0127 129.321 95.9472 129.294C95.8817 129.267 95.8116 129.253 95.7407 129.253C93.5225 129.553 91.1245 130.032 88.9064 129.373C84.8298 128.234 84.4101 126.735 83.1511 126.555Z" fill="var(--fill-0, #383E45)"/>
<path id="Vector_20" d="M134.708 97.8989C135.728 96.8198 135.728 96.64 135.008 95.3211C132.49 90.7648 119.361 67.0245 111.208 62.6481C110.309 62.1685 109.769 63.6073 110.608 64.0869C118.462 68.4633 129.553 89.0862 134.229 96.4002C128.707 101.32 122.534 105.455 115.884 108.69C114.985 106.472 111.268 100.057 109.889 97.6591C109.469 96.8198 108.27 97.6591 108.69 98.4385C110.848 102.335 113.006 106.292 115.225 110.129C115.346 110.255 115.503 110.34 115.675 110.372C115.847 110.405 116.025 110.382 116.184 110.309C120.92 107.971 130.572 102.155 134.708 97.8989Z" fill="var(--fill-0, #383E45)"/>
<path id="Vector_21" d="M105.213 135.848C105.173 135.705 105.086 135.581 104.966 135.494C104.847 135.407 104.701 135.362 104.553 135.368C104.405 135.397 104.273 135.481 104.184 135.604C104.095 135.726 104.056 135.877 104.074 136.027C104.134 143.161 111.028 175.774 114.026 182.009C114.265 182.549 115.045 182.129 114.925 181.65C110.787 166.587 107.544 151.293 105.213 135.848Z" fill="var(--fill-0, #383E45)"/>
<path id="Vector_22" d="M40.9461 180.271C39.867 182.249 41.066 182.189 42.0851 180.87C46.1018 175.535 50.5981 162.106 50.7779 157.789C50.7779 157.25 49.8787 157.13 49.7588 157.609C47.9254 165.547 44.9573 173.18 40.9461 180.271Z" fill="var(--fill-0, #383E45)"/>
<path id="Vector_23" d="M44.8429 78.3551C41.5435 85.8854 38.9738 93.7148 37.1692 101.736C36.9294 102.755 38.4881 103.175 38.7279 102.155C40.5864 93.8223 44.723 79.9738 49.5789 72.8996C50.0585 72.2402 48.5598 69.8422 44.8429 78.3551Z" fill="var(--fill-0, #383E45)"/>
<path id="Vector_24" d="M65.7655 61.2093C65.7651 61.2933 65.7824 61.3765 65.8162 61.4535C65.85 61.5304 65.8996 61.5994 65.9618 61.6559C66.0239 61.7124 66.0973 61.7553 66.1771 61.7816C66.2569 61.8079 66.3414 61.8172 66.425 61.8088C67.3832 61.5172 68.3667 61.3164 69.3626 61.2093C69.1928 67.0969 69.6551 72.9857 70.7414 78.7748C70.9812 79.9738 71.4608 80.0337 72.3001 79.4342C78.9546 74.7581 88.4268 65.6456 92.6832 58.8113C93.7129 58.8125 94.7389 58.9332 95.7407 59.171C96.4002 59.2909 97.1196 57.6722 92.7432 57.4924C92.2036 57.4324 91.8439 57.6123 91.0046 58.9911C86.8081 65.5257 77.9355 73.619 71.8205 77.8156C71.0809 72.1273 70.6407 66.4042 70.5016 60.6698C70.4417 59.8904 70.2618 59.7705 69.3026 59.8904C68.247 60.0237 67.2043 60.2442 66.1852 60.5499C66.0541 60.6007 65.9426 60.6921 65.8671 60.8107C65.7916 60.9293 65.756 61.069 65.7655 61.2093Z" fill="var(--fill-0, #383E45)"/>
<path id="Vector_25" d="M52.9362 67.9837C46.9411 81.4725 47.4807 98.1987 48.26 103.834C49.0865 104.022 49.9304 104.123 50.7779 104.134C52.0969 87.7074 55.574 72.0603 64.3867 60.8496C65.5857 59.2309 60.1302 61.569 58.1518 62.5282C56.1735 63.4874 54.7946 63.9071 52.9362 67.9837Z" fill="var(--fill-0, #383E45)"/>
<path id="Vector_26" d="M108.21 100.597C108.39 104.973 108.81 115.045 109.11 116.903C111.375 115.877 113.413 114.41 115.105 112.587C112.599 108.713 110.297 104.711 108.21 100.597Z" fill="var(--fill-0, #383E45)"/>
<path id="Vector_27" d="M106.832 134.289C106.951 135.548 107.971 141.962 108.21 143.821C109.889 143.881 121.1 144.9 123.258 142.622C125.416 140.344 124.637 134.109 124.757 128.833C121.16 131.591 109.829 133.449 106.832 134.289Z" fill="var(--fill-0, #383E45)"/>
<path id="Vector_28" d="M103.714 58.0319C100.956 57.4924 98.4984 55.0344 98.1987 57.972C96.2203 78.1153 97.4793 105.453 104.913 119.001C105.795 118.808 106.644 118.485 107.431 118.042C106.112 101.796 105.213 81.8922 108.21 61.0894C108.51 59.111 106.412 58.5715 103.714 58.0319Z" fill="var(--fill-0, #383E45)"/>
<path id="Vector_29" d="M110.848 59.7105C116.124 62.1086 123.917 71.8805 126.435 77.0962C126.435 73.4392 127.215 59.0511 125.116 56.1135C123.018 53.176 105.393 54.0752 101.256 54.1951C104.613 56.5332 110.548 56.713 110.848 59.7105Z" fill="var(--fill-0, #383E45)"/>
<path id="Vector_30" d="M27.2175 102.755C26.3782 102.215 8.15325 84.4701 7.91345 85.1295C7.67364 85.789 15.1674 103.774 16.4264 106.891C19.2441 108.99 20.8028 107.971 22.2416 110.608C22.961 111.927 25.5389 122.359 24.8194 123.678L24.6396 124.037C24.3001 124.523 23.7846 124.857 23.2025 124.969C22.6204 125.081 22.0177 124.962 21.5222 124.637C22.6612 127.754 24.3998 132.43 24.9993 133.569C25.5988 134.708 39.2075 153.053 40.2866 152.933C47.1809 152.454 67.624 157.31 68.6432 157.849C69.6623 158.389 95.381 152.574 96.5201 152.034C97.6591 151.495 94.7216 140.524 94.7216 139.684C91.784 140.703 85.729 141.303 84.3501 138.785C82.9713 136.267 77.1561 125.236 83.5708 120.62C86.928 118.222 87.5875 122.898 92.983 123.738C92.7432 118.342 91.6041 100.836 91.4842 100.177C91.3643 99.5176 62.0486 108.21 61.1494 107.911C55.2143 105.453 28.0568 103.294 27.2175 102.755ZM61.2093 112.527C61.19 112.44 61.2039 112.348 61.2482 112.271C61.2926 112.193 61.3642 112.135 61.4491 112.107C61.4962 112.089 61.5466 112.08 61.5972 112.082C61.6477 112.084 61.6973 112.097 61.7425 112.12C61.7878 112.142 61.8278 112.174 61.8599 112.214C61.8919 112.253 61.9154 112.298 61.9287 112.347C64.6265 121.22 67.0245 139.025 69.3026 154.852C69.4225 155.391 68.4034 155.571 68.2835 154.972C65.7056 139.265 63.3675 125.776 61.2093 112.527ZM27.3374 105.692C27.3195 105.629 27.3147 105.563 27.3234 105.498C27.332 105.434 27.3538 105.371 27.3875 105.315C27.4212 105.259 27.4661 105.21 27.5193 105.172C27.5726 105.134 27.633 105.107 27.6971 105.093C27.7644 105.075 27.8348 105.072 27.9034 105.085C27.9719 105.097 28.037 105.124 28.094 105.164C28.1511 105.204 28.1988 105.256 28.2337 105.316C28.2687 105.376 28.2901 105.443 28.2966 105.513C32.3732 119.961 35.8503 132.91 39.6871 147.538C39.867 148.077 38.9078 148.437 38.7879 147.838C34.2316 130.812 29.6754 118.402 27.3374 105.692Z" fill="var(--fill-0, #383E45)"/>
</g>
</svg>
