<svg preserveAspectRatio="none" width="100%" height="100%" overflow="visible" style="display: block;" viewBox="0 0 164 164" fill="none" xmlns="http://www.w3.org/2000/svg">
<g id="sl-hero.svg">
<path id="Vector" d="M83.189 130.462C83.23 138.293 83.312 147.272 83.558 157.317C83.599 158.424 84.993 158.424 85.116 157.686C85.239 156.948 85.28 154.816 85.239 132.594L83.189 130.462Z" fill="var(--fill-0, #383E45)"/>
<path id="Vector_2" d="M133.332 48.995C132.676 44.854 131.2 41.164 128.002 38.212C122.426 33.128 121.483 34.153 80.401 33.989C42.517 33.825 36.039 28.782 36.9 82C36.9 82.738 36.736 83.066 35.916 83.025C29.52 82.779 29.11 83.517 29.274 89.134C29.315 91.389 29.233 90.774 82.738 90.405C83.804 90.405 83.189 102.459 83.189 125.624L85.239 127.879V91.43C85.239 90.446 85.239 90.446 86.264 90.446C93.275 90.405 93.111 90.036 93.111 91.471C93.111 99.958 93.398 122.098 93.644 137.473C94.341 138.58 94.833 139.441 95.161 139.728C95.4175 139.518 95.6389 139.269 95.817 138.99C95.735 130.995 95.53 119.556 95.284 103.115C95.079 89.872 94.628 90.323 95.735 90.405C96.842 90.487 130.175 90.405 133.373 89.954C134.234 89.831 134.439 89.626 134.521 88.724C135.054 83.722 134.808 58.261 133.332 48.995ZM31.57 88.724C30.873 88.724 30.627 88.601 30.914 85.772C31.119 83.845 32.923 84.747 72.529 84.46C73.267 84.46 72.939 84.624 73.062 88.191C73.062 89.011 39.565 88.519 31.57 88.724ZM73.021 82.41C73.062 83.23 73.021 82.82 39.36 82.943C38.13 82.943 38.95 82.738 38.581 72.365C38.294 64.698 39.155 53.382 41.615 45.428C44.075 37.474 52.275 35.711 55.473 35.875C75.891 37.105 72.816 63.591 73.021 82.41ZM132.717 86.674C132.676 88.642 132.84 88.232 131.077 88.314C126.772 88.478 129.888 88.396 85.731 88.56C75.112 88.601 75.153 88.97 75.112 87.945C75.071 84.788 75.686 77.326 75.153 66.092C74.579 52.89 73.964 42.476 62.976 35.629C125.501 35.629 123.492 36.203 127.305 40.508C131.118 44.813 133.373 49.897 132.717 86.674Z" fill="var(--fill-0, #383E45)"/>
<path id="Vector_3" d="M95.202 143.951C94.669 144.566 94.177 144.812 93.767 144.689C93.849 149.814 93.931 153.176 93.972 153.34C94.013 153.504 93.726 157.153 94.874 157.235C96.022 157.317 95.981 157.522 95.858 143.295C95.6193 143.493 95.3997 143.712 95.202 143.951Z" fill="var(--fill-0, #383E45)"/>
<path id="Vector_4" d="M100.204 86.838C78.679 86.592 79.581 86.715 79.54 85.854C79.499 84.993 79.54 85.198 111.233 85.28C130.626 85.321 130.585 84.87 130.626 86.018C130.667 87.166 130.626 86.715 105.124 86.715L100.204 86.838Z" fill="var(--fill-0, #383E45)"/>
<path id="Vector_5" d="M44.772 77.203C43.501 75.276 43.296 75.932 42.189 73.759C42.025 73.472 42.148 73.144 42.599 73.39C43.87 73.923 47.027 77.285 48.585 78.474C51.66 80.893 54.038 80.114 59.245 80.319C64.452 80.524 65.477 80.155 67.937 78.925C68.47 78.638 68.962 78.31 69.249 78.802C69.536 79.294 68.962 79.458 68.634 79.704C66.42 81.467 63.796 81.713 61.09 81.672C52.685 81.508 50.307 81.795 47.314 79.335C46.002 78.269 40.549 78.351 40.631 77.572C40.713 76.793 41.246 77.203 44.772 77.203Z" fill="var(--fill-0, #383E45)"/>
<path id="Vector_6" d="M57.113 70.069C57.1321 70.1738 57.1269 70.2816 57.0979 70.3841C57.0688 70.4866 57.0166 70.581 56.9454 70.6602C56.8741 70.7394 56.7856 70.8012 56.6868 70.8409C56.5879 70.8805 56.4812 70.897 56.375 70.889C54.653 70.93 56.621 68.798 53.3 66.01C51.25 64.329 47.806 64.985 47.888 70.069C47.888 71.094 46.945 70.971 46.781 70.233C44.936 61.418 56.211 60.516 57.113 70.069Z" fill="var(--fill-0, #383E45)"/>
<path id="Vector_7" d="M68.511 68.593C68.552 69.618 68.306 71.217 67.363 70.971C66.42 70.725 67.24 69.331 66.871 67.978C65.928 64.575 62.156 66.748 59.942 69.577C59.122 70.602 58.999 71.094 58.63 70.889C58.261 70.684 59.163 68.019 60.434 66.789C63.96 63.222 68.511 63.878 68.511 68.593Z" fill="var(--fill-0, #383E45)"/>
<path id="Vector_8" d="M62.853 63.96C62.8562 64.1099 62.8109 64.2569 62.7239 64.3791C62.637 64.5013 62.5129 64.5921 62.3701 64.6382C62.2274 64.6842 62.0736 64.683 61.9316 64.6347C61.7896 64.5864 61.667 64.4935 61.582 64.37C61.008 63.632 59.901 61.09 57.605 62.771C56.375 63.673 56.17 65.149 55.473 64.78C54.776 64.411 55.801 60.926 58.958 60.598C60.967 60.393 62.771 62.32 62.853 63.96Z" fill="var(--fill-0, #383E45)"/>
<path id="Vector_9" d="M66.092 71.381C70.479 71.381 71.586 74.046 69.372 73.472C65.6 72.488 63.386 73.144 63.181 72.447C62.976 71.75 65.354 71.422 66.092 71.381Z" fill="var(--fill-0, #383E45)"/>
<path id="Vector_10" d="M50.717 72.324C50.6906 72.2047 50.7096 72.0798 50.7702 71.9737C50.8309 71.8676 50.9288 71.7879 51.045 71.75C55.719 70.069 59.819 73.472 56.99 72.98C52.234 72.078 50.881 73.144 50.717 72.324Z" fill="var(--fill-0, #383E45)"/>
<path id="Vector_11" d="M66.707 78.556C66.6566 78.5198 66.6143 78.4735 66.5826 78.4201C66.5509 78.3668 66.5306 78.3075 66.5229 78.2459C66.5152 78.1843 66.5203 78.1218 66.5379 78.0623C66.5555 78.0028 66.5851 77.9475 66.625 77.9C69.249 73.677 74.579 73.841 72.037 75.194C67.773 77.449 67.322 79.048 66.707 78.556Z" fill="var(--fill-0, #383E45)"/>
<path id="Vector_12" d="M45.223 70.766C51.66 72.734 49.938 75.727 49.077 74.743C47.396 72.734 43.132 70.889 45.223 70.766Z" fill="var(--fill-0, #383E45)"/>
<path id="Vector_13" d="M59.737 73.595C58.835 73.472 58.753 72.693 59.327 72.365C61.582 71.135 62.689 69.454 63.058 69.741C63.427 70.028 61.541 73.431 59.737 73.595Z" fill="var(--fill-0, #383E45)"/>
<path id="Vector_14" d="M60.065 78.023C60.024 77.613 60.065 77.654 63.837 75.276C64.001 75.194 64.206 74.948 64.411 75.153C64.616 75.358 60.188 79.95 60.065 78.023Z" fill="var(--fill-0, #383E45)"/>
<path id="Vector_15" d="M54.612 75.317C54.612 74.62 54.858 74.62 55.186 74.989C57.318 77.244 57.81 77.613 57.318 78.105C56.826 78.597 54.858 76.916 54.612 75.317Z" fill="var(--fill-0, #383E45)"/>
<path id="Vector_16" d="M76.055 117.137C76.711 114.308 74.046 111.766 76.465 108.609C77.9 106.764 80.36 107.051 80.606 109.347C80.852 111.643 79.048 114.185 78.023 114.923C72.939 118.572 87.289 130.831 91.102 135.546C95.653 141.245 94.136 144.525 100.45 132.758C101.393 130.913 101.106 129.15 100.532 127.387C100.245 126.567 97.375 124.271 98.072 120.704C98.523 118.285 100.901 118.326 101.721 120.376C103.074 123.902 100.204 124.394 102.213 128.945C103.484 126.034 104.919 122.508 105.411 119.351C105.739 117.178 104.919 113.611 106.805 110.577C109.88 105.616 115.784 109.798 108.24 116.071C107.01 117.096 106.805 117.014 106.846 117.67C106.969 121.934 104.837 125.665 105.083 125.911C105.329 126.157 106.764 125.214 107.871 123.082C108.363 122.139 109.593 118.736 113.283 119.31C115.538 119.679 115.497 122.631 111.848 124.599C109.101 126.116 107.789 125.542 107.543 125.747C105.944 127.141 104.509 127.059 104.099 128.166C102.172 132.963 100.163 135.792 99.876 136.694C101.188 136.612 101.885 135.095 103.648 133.619C105.411 132.143 109.101 132.184 109.388 134.029C109.675 135.874 106.928 136.981 105.001 136.899C102.377 136.817 102.582 136.243 102.049 136.694C100.245 138.129 99.63 137.268 98.441 138.785C95.407 142.762 96.022 142.065 94.997 143.172C93.972 144.279 93.48 143.746 92.988 142.188C92.496 140.63 91.471 137.432 87.74 133.742C79.335 125.542 80.688 125.091 77.654 124.968C74.62 124.845 72.201 125.419 70.725 123.574C69.249 121.729 70.684 118.736 73.39 119.72C76.916 121.032 76.055 124.23 78.515 123.779C76.219 120.212 74.989 118.531 73.554 115.046C72.119 111.561 68.593 112.053 64.903 109.388C61.213 106.723 66.502 101.106 69.782 109.839C70.192 110.946 70.52 110.29 72.16 111.438C70.93 106.969 70.233 100.368 70.233 97.17C70.233 90.036 78.638 92.086 73.636 100.778C72.037 103.648 71.955 103.156 72.283 105.083C73.472 111.889 74.087 112.75 76.055 117.137ZM71.75 101.516C72.365 99.876 74.415 97.375 73.759 95.038C73.39 93.562 71.545 94.3 71.422 96.104C71.2496 97.9141 71.3603 99.74 71.75 101.516ZM108.527 124.312C109.757 124.722 114.636 122.098 113.693 120.663C113.365 120.13 112.709 120.171 112.135 120.294C109.921 120.704 109.265 122.549 108.527 124.312ZM106.805 115.497C109.511 113.488 111.233 110.536 110.331 109.88C109.429 109.224 107.01 111.192 106.805 115.497ZM76.834 114.267C78.515 112.094 79.089 111.643 79.212 110.454C79.335 109.265 79.458 109.06 78.802 108.814C78.146 108.568 77.613 109.142 77.244 109.675C76.342 111.11 76.629 112.586 76.834 114.267ZM75.686 123.738C74.784 122.549 74.128 121.565 73.062 120.991C71.996 120.417 70.766 121.114 71.463 122.549C72.16 123.984 74.292 123.82 75.686 123.738ZM103.32 135.546C103.894 135.833 106.518 136.12 107.871 135.054C109.88 133.496 105.37 132.389 103.32 135.546ZM100.204 125.337C100.737 123.369 101.27 122.098 100.696 120.663C99.712 118.367 97.498 121.278 100.204 125.337ZM68.552 110.003C67.445 107.912 67.281 107.256 66.256 106.641C65.231 106.026 62.607 107.461 68.552 110.003Z" fill="var(--fill-0, #383E45)"/>
<path id="Vector_17" d="M81.344 140.712C79.786 139.482 78.392 138.006 76.588 137.063C74.784 136.12 76.957 135.3 75.809 132.43C74.128 128.166 67.24 132.758 76.875 138.949C77.7973 139.572 78.6868 140.243 79.54 140.958C79.909 141.245 80.196 141.286 78.556 142.024C78.351 142.106 76.055 140.056 74.989 141.778C73.923 143.5 75.235 144.607 76.793 144.197C79.007 143.541 79.458 142.434 80.606 142.434C80.8784 142.438 81.1458 142.509 81.385 142.639V140.712H81.344ZM74.743 135.997C71.217 131.856 73.923 131.241 74.62 132.717C75.317 134.193 74.825 134.89 74.743 135.997ZM75.891 142.434C76.219 142.065 77.039 142.516 77.326 142.844C76.219 143.664 75.399 142.967 75.891 142.434Z" fill="var(--fill-0, #383E45)"/>
<path id="Vector_18" d="M78.679 25.051C73.595 21.402 74.989 17.917 69.126 16.154C66.666 15.416 64.288 14.637 63.345 11.562C62.402 8.487 62.566 7.257 59.409 6.601C57.728 6.273 54.653 6.273 54.817 5.412C54.981 4.551 55.186 5.125 55.432 5.125C69.044 4.469 60.434 12.464 68.921 14.555C72.816 15.498 74.21 16.892 75.973 19.68C78.638 23.944 82.082 24.641 81.672 25.912C81.508 26.363 80.811 26.24 80.319 26.281C69.29 27.388 62.32 18.122 63.181 17.425C64.042 16.728 70.725 25.502 78.679 25.051Z" fill="var(--fill-0, #383E45)"/>
<path id="Vector_19" d="M70.11 30.34C70.192 30.996 69.413 31.365 69.167 30.545C67.855 26.199 68.019 25.789 67.158 26.117C66.297 26.445 65.313 25.871 65.846 27.265C66.379 28.659 66.953 30.668 66.174 30.832C65.395 30.996 65.723 30.832 64.247 27.142C64.1714 26.8957 64.0271 26.6762 63.831 26.5091C63.6349 26.3421 63.3951 26.2345 63.14 26.199C51.496 23.739 56.949 11.562 52.111 6.273C51.086 5.166 50.184 5.289 50.471 4.674C50.758 4.059 53.792 5.248 54.694 7.257C57.031 12.505 55.473 15.252 57.646 19.926C61.213 27.675 68.306 23.042 69.413 26.117C69.8666 27.4791 70.1018 28.9044 70.11 30.34Z" fill="var(--fill-0, #383E45)"/>
<path id="Vector_20" d="M78.392 20.787C77.613 21.156 76.875 20.5 77.736 19.762C82.574 15.498 81.016 10.783 81.959 10.865C82.902 10.947 83.312 18.614 78.392 20.787Z" fill="var(--fill-0, #383E45)"/>
<path id="Vector_21" d="M76.588 11.152C76.547 13.858 74.989 15.949 74.21 15.293C74.1444 15.2493 74.0893 15.1916 74.0487 15.1241C74.008 15.0565 73.9829 14.9808 73.9751 14.9024C73.9672 14.824 73.9769 14.7448 74.0033 14.6705C74.0298 14.5963 74.0723 14.5288 74.128 14.473C76.178 11.152 73.841 7.585 74.538 7.298C75.235 7.011 76.465 9.84 76.588 11.152Z" fill="var(--fill-0, #383E45)"/>
<path id="Vector_22" d="M79.745 11.275C79.786 12.095 79.294 13.448 78.679 13.284C78.5767 13.2552 78.4897 13.1878 78.4361 13.096C78.3826 13.0042 78.3668 12.8952 78.392 12.792C78.884 10.619 77.244 7.38 77.818 7.134C78.392 6.888 79.704 9.553 79.745 11.275Z" fill="var(--fill-0, #383E45)"/>
<path id="Vector_23" d="M57.687 8.979C57.81 7.831 59.45 7.913 59.409 8.979C59.409 9.20735 59.3183 9.42635 59.1568 9.58782C58.9954 9.74929 58.7764 9.84 58.548 9.84C58.3197 9.84 58.1007 9.74929 57.9392 9.58782C57.7777 9.42635 57.687 9.20735 57.687 8.979Z" fill="var(--fill-0, #383E45)"/>
</g>
</svg>
