<svg preserveAspectRatio="none" width="100%" height="100%" overflow="visible" style="display: block;" viewBox="0 0 220 220" fill="none" xmlns="http://www.w3.org/2000/svg">
<g id="sl-shop-open.svg">
<path id="Vector" d="M177.547 88.616C177.553 88.0308 176.405 87.1398 176.38 88.5984C175.953 113.978 175.116 138.697 173.796 163.591C173.76 164.256 175.006 164.618 175.044 163.96C176.84 128.502 177.269 115.894 177.547 88.616ZM141.318 140.613C140.455 140.676 139.971 141.034 139.961 142.196C139.911 148.273 139.989 155.168 140.351 160.584C140.446 162.007 141.526 161.891 141.444 160.42C141.139 154.979 141.159 147.486 141.184 141.774C142.809 141.704 145.597 141.677 147.069 141.649C148.127 141.629 148.432 141.297 148.399 140.302C148.226 135.084 148.43 128.29 148.228 122.632C148.198 121.759 147.904 121.506 147.095 121.52C145.005 121.558 141.775 121.47 140.324 121.644C139.863 121.7 139.808 122.502 140.337 122.524C142.491 122.593 144.987 122.535 147.17 122.674C147.139 128.343 147.038 134.884 147.161 140.467C145.212 140.441 143.263 140.49 141.318 140.613ZM136.497 97.4996C136.515 122.183 137.61 141.928 137.845 164.239C137.852 164.86 136.885 164.986 136.862 164.337C135.973 138.464 135.126 117.965 135.094 97.493C135.094 96.5173 135.519 96.173 136.541 96.1367C141.284 95.9937 162.051 95.5394 166.96 95.6307C168.074 95.6516 168.402 96.0773 168.435 97.3698C169.004 119.103 168.915 140.856 167.967 163.396C167.937 164.096 166.813 163.867 166.823 163.253C167.153 141.225 167.593 119.722 167.285 97.1036C159.223 97.0134 143.66 97.3412 136.497 97.4996ZM162.975 161.056C163.944 141.828 163.282 125.91 163.541 102.983C163.541 102.512 164.443 102.265 164.446 102.836C164.513 121.968 164.924 146.923 164.241 160.832C164.184 162.012 163.671 162.232 162.983 162.232C156.757 162.232 148.809 162.687 142.695 162.388C142.145 162.361 142.084 161.543 142.655 161.517C148.778 161.241 156.75 161.051 162.975 161.056ZM45.6423 93.1986C45.5895 92.6035 44.6754 92.642 44.7161 93.2371C46.2726 116.124 48.2713 141.795 51.0444 164.627C51.1489 165.484 52.4964 165.487 52.3039 163.804C49.3757 138.16 47.7598 117.453 45.6423 93.1986ZM53.1531 98.1706C54.4863 114.891 55.2343 132.969 57.2715 151.28C79.0438 150.934 105.121 149.997 126.72 149.511C128.297 149.475 128 150.71 127.217 150.734C104.127 151.455 80.8577 151.843 57.8523 152.483C56.4663 152.522 56.0714 152.813 55.9394 151.319C54.604 136.162 52.9012 113.977 52.1818 98.252C52.1765 98.1882 52.1837 98.124 52.2032 98.0631C52.2227 98.0021 52.2539 97.9456 52.2953 97.8967C52.3366 97.8478 52.3871 97.8075 52.444 97.7782C52.5009 97.7489 52.563 97.731 52.6267 97.7257C52.6905 97.7203 52.7547 97.7276 52.8157 97.747C52.8767 97.7665 52.9332 97.7978 52.9821 97.8391C53.031 97.8804 53.0712 97.931 53.1006 97.9879C53.1299 98.0447 53.1478 98.1068 53.1531 98.1706ZM57.3331 102.595C79.2957 101.707 101.016 102.265 122.75 101.486C123.378 101.464 123.41 100.507 122.775 100.505C101.805 100.42 77.484 100.978 57.189 101.479C56.4355 101.498 56.1847 101.78 56.2496 102.838C57.1131 116.976 58.5453 131.184 60.1249 147.034C60.1876 147.66 61.1974 147.629 61.1226 146.975C59.4605 132.534 58.6773 116.92 57.3375 102.595H57.3331ZM127.53 96.5206C103.65 96.4876 78.6654 96.7109 55.5291 97.6679C54.8317 97.6965 54.7701 98.7954 55.4906 98.7679C79.6312 97.9462 103.8 97.7273 128.091 97.8736C128.447 114.755 128.359 131.929 128.567 148.157C128.588 149.797 129.787 149.587 129.787 148.817C129.787 133.88 129.532 114.688 129.243 98.3202C129.21 96.4139 128.778 96.5228 127.534 96.5206H127.53ZM124.802 103.575C124.786 103.018 123.928 102.934 123.922 103.507C123.837 116.829 124.422 130.72 124.16 144.239C104.133 144.871 82.72 145.99 62.7451 146.83C62.2413 146.851 62.3051 147.732 62.8122 147.717C83.2315 147.079 103.452 146.088 123.905 145.53C125.102 145.497 125.415 145.111 125.417 143.804C125.433 131.479 124.806 103.575 124.806 103.575H124.802ZM162.34 101.078C157.61 100.76 143.931 100.748 140.522 100.978C139.655 101.036 139.526 101.02 139.501 101.912C139.405 105.365 139.442 112.589 139.819 119.758C139.863 120.605 140.879 120.496 140.84 119.7C140.462 112.196 140.689 105.042 140.485 101.99C143.976 102.064 154.33 101.729 162.383 102.029C162.964 102.053 162.868 101.112 162.345 101.078H162.34Z" fill="var(--fill-0, #383E45)"/>
<path id="Vector_2" d="M59.5837 55.5192C55.0957 60.8311 39.4009 79.948 39.2337 81.5694C37.9709 93.7475 54.5171 91.058 55.9273 81.7443C59.5474 75.1091 68.8743 59.5419 71.1073 55.066C74.1418 54.9604 77.2075 54.8625 80.3044 54.7723C78.8667 59.1162 73.2402 77.5324 72.688 80.9908C73.557 91.9468 86.1949 89.5708 86.3687 80.4683C86.471 79.2374 89.705 59.2207 90.2484 54.5083C93.8117 54.4203 97.394 54.3371 100.995 54.2586C100.718 58.8907 100.136 77.3839 99.9339 80.124C100.552 91.7763 113.847 89.254 114.426 79.7753C114.274 78.7028 111.51 58.993 110.591 54.0551L122.328 53.8098C123.978 58.4991 131.949 78.2155 132.095 79.4398C132.315 89.7798 146.519 89.9437 147.005 78.9635C146.334 75.5337 135.867 57.816 133.312 53.5645C137.692 53.4626 142.033 53.3504 146.336 53.2279C148.815 57.2011 159.924 71.8707 163.585 78.5829C166.318 91.6982 182.227 87.3829 180.278 77.8998C179.905 76.0848 161.083 56.43 157.522 52.8869C156.387 51.7583 155.451 51.5812 153.413 51.6208C140.569 51.8705 76.5721 53.3258 63.1587 53.9143C62.4783 53.8795 61.7993 54.0069 61.1778 54.2859C60.5563 54.565 60.0099 54.9877 59.5837 55.5192ZM161.965 80.1207C161.995 79.9872 162.075 79.8707 162.19 79.7965C162.305 79.7223 162.444 79.6963 162.578 79.7243C162.712 79.7522 162.829 79.8318 162.905 79.9458C162.98 80.0598 163.008 80.1989 162.981 80.333C162.734 82.0973 161.867 83.7158 160.535 84.8986C159.203 86.0815 157.493 86.7512 155.712 86.7878C152.269 86.8142 148.687 84.1269 148.313 80.5805C148.31 80.467 148.347 80.3559 148.417 80.267C148.488 80.1781 148.588 80.1171 148.699 80.0949C148.811 80.0726 148.926 80.0905 149.026 80.1453C149.125 80.2002 149.202 80.2885 149.242 80.3946C150.172 83.1941 152.605 85.5646 155.727 85.4843C157.205 85.3785 158.609 84.7998 159.733 83.8338C160.856 82.8679 161.639 81.566 161.965 80.1207ZM71.1568 83.8376C71.3922 83.3437 72.138 83.8211 72.0258 84.2215C71.6328 85.9802 70.6567 87.5544 69.256 88.6883C67.8553 89.8222 66.1124 90.4491 64.3104 90.4673C62.4904 90.5268 60.701 89.9892 59.2152 88.9365C57.7293 87.8839 56.6287 86.374 56.0813 84.6373C56.0454 84.5252 56.0538 84.4036 56.1047 84.2975C56.1556 84.1914 56.2451 84.1088 56.355 84.0666C56.4649 84.0244 56.5867 84.0258 56.6956 84.0706C56.8044 84.1153 56.892 84.2 56.9404 84.3073C57.5415 85.7746 58.5716 87.0262 59.8958 87.8985C61.22 88.7707 62.7767 89.2228 64.3621 89.1957C68.42 88.9295 69.718 86.8549 71.1568 83.8376ZM98.054 82.3328C98.2212 81.8653 99.0539 81.9511 99.0495 82.4758C99.0209 85.4194 96.0729 87.8922 93.3053 88.2189C90.4992 88.5489 87.186 86.7636 86.4127 83.9201C86.2895 83.4647 86.9396 82.9939 87.2091 83.4801C88.4191 85.6735 90.4596 87.2773 93.0809 87.0001C95.8595 86.7031 97.1861 84.7462 98.054 82.3328ZM129.927 80.3946C130.133 79.8303 130.966 80.1152 130.901 80.6696C130.593 82.6106 129.65 84.3945 128.219 85.7415C126.788 87.0885 124.95 87.9223 122.994 88.1122C121.098 88.3336 119.189 87.8196 117.661 86.6759C116.132 85.5322 115.1 83.8459 114.777 81.9643C114.71 81.4528 115.53 81.235 115.671 81.7443C116.094 83.3327 117.074 84.7159 118.433 85.6413C119.791 86.5667 121.437 86.9724 123.07 86.7845C126.779 86.3379 128.733 83.6671 129.927 80.3946ZM216.536 165.185C189.766 165.308 50.0588 166.234 11.2761 167.145C10.6161 167.16 10.7261 168.191 11.3575 168.204C37.9269 168.743 65.0496 167.936 91.6806 167.706C133.33 167.346 175.006 167.145 216.65 166.618C217.524 166.607 217.408 165.182 216.536 165.185ZM79.53 103.914C79.8941 103.167 81.1195 103.613 80.7499 104.364C77.9218 110.113 75.1212 115.878 72.1358 121.549C71.8795 122.034 71.0666 121.596 71.2888 121.109C73.92 115.321 76.7393 109.624 79.53 103.914ZM106.403 123.764C106.337 123.181 105.371 123.258 105.373 123.846C105.382 125.808 105.467 127.696 105.575 129.654C103.894 128.311 102.311 126.851 100.836 125.284C99.748 124.134 99.231 124.624 99.2486 126.076C99.2618 127.159 99.6886 132.523 100.256 132.993C100.381 133.089 100.538 133.132 100.694 133.113C100.85 133.093 100.992 133.014 101.09 132.891C101.564 132.254 100.672 128.629 100.552 126.717C102.076 128.551 103.811 130.198 105.722 131.625C105.849 131.743 106.01 131.818 106.182 131.839C106.354 131.86 106.529 131.827 106.681 131.743C106.833 131.659 106.954 131.53 107.028 131.373C107.102 131.216 107.125 131.04 107.093 130.869C106.821 128.543 106.67 126.129 106.403 123.764ZM97.68 132.378C96.1149 132.59 94.5654 132.903 93.0413 133.317C92.63 131.145 92.1532 128.985 91.6113 126.842C92.7965 126.642 93.9775 126.417 95.1533 126.167C96.1103 125.963 95.8243 124.687 94.303 125.019C93.3031 125.239 91.9666 125.432 91.0173 125.75C90.2583 126.003 90.3573 126.18 90.4882 126.86C90.904 129.032 91.2208 131.541 91.6575 133.57C91.8302 134.375 91.9578 134.67 93.2404 134.532C93.9972 134.449 97.4721 133.896 97.9704 133.405C98.0438 133.326 98.0957 133.23 98.121 133.126C98.1464 133.022 98.1444 132.913 98.1151 132.81C98.0859 132.706 98.0305 132.612 97.9543 132.537C97.878 132.461 97.7835 132.407 97.68 132.378ZM95.612 128.632C96.4238 128.489 96.7637 129.419 96.0773 129.753C95.5933 129.987 94.0786 130.283 93.4285 130.523C92.8972 130.714 92.422 129.879 93.0259 129.572C93.8428 129.145 94.7128 128.829 95.6131 128.632H95.612ZM87.9043 127.142C86.537 125.177 82.6474 125.977 80.8445 126.871C80.3418 127.119 80.5585 127.994 81.147 127.851C81.4616 127.774 81.7762 127.7 82.0919 127.631C83.2689 132.311 83.3899 134.417 83.6143 134.742C83.6735 134.843 83.7607 134.925 83.8654 134.977C83.97 135.03 84.0876 135.051 84.2039 135.038C84.3202 135.025 84.4303 134.979 84.5209 134.905C84.6115 134.83 84.6786 134.732 84.7143 134.62C84.9464 133.76 83.4724 128.449 83.1358 127.439C84.1181 127.288 85.8473 127.03 86.5975 127.716C87.7778 128.792 86.8076 130.315 85.3875 130.503C84.7792 130.583 84.6615 131.801 86.053 131.616C86.5334 131.541 86.9864 131.344 87.3685 131.043C87.7506 130.742 88.049 130.348 88.235 129.899C88.421 129.45 88.4884 128.96 88.4307 128.478C88.3729 127.995 88.1921 127.535 87.9054 127.142H87.9043ZM79.6257 128.737C81.5408 131.549 80.2098 135.997 76.5908 136.07C73.15 136.135 71.4978 131.568 73.8606 129.198C73.9417 129.119 74.0485 129.071 74.1619 129.063C74.2752 129.055 74.3876 129.088 74.479 129.155C74.5703 129.223 74.6345 129.321 74.6601 129.432C74.6856 129.542 74.6709 129.658 74.6185 129.759C73.5108 131.969 74.0685 135.183 76.8185 134.797C79.332 134.445 79.7885 131.387 78.4421 129.505C78.1565 129.086 77.7351 128.779 77.249 128.635C76.763 128.491 76.2422 128.52 75.7746 128.715C75.2191 128.887 74.6317 128.351 74.9936 127.956C76.34 126.482 78.65 127.301 79.6268 128.737H79.6257ZM113.079 134.127C112.848 129.362 111.619 122.188 111.395 119.635C98.3235 121.319 84.0048 122.521 70.7608 124.485C70.1162 124.581 70.0502 123.594 70.6695 123.495C83.4669 121.478 97.5447 119.922 110.495 118.423C111.719 118.281 112.201 118.243 112.452 119.503C113.348 124.013 113.584 128.779 114.322 133.327C114.551 134.729 113.977 135.51 112.323 135.737C99.8228 137.455 87.076 139.108 72.9025 140.961C70.422 141.284 70.3813 141.166 69.8544 138.431C69.0083 134.125 68.4963 129.761 68.3232 125.377C68.3128 125.25 68.3526 125.125 68.4342 125.027C68.5157 124.93 68.6323 124.868 68.7588 124.856C68.8853 124.844 69.0114 124.883 69.1098 124.963C69.2082 125.043 69.271 125.159 69.2846 125.286C69.6917 130.116 70.3778 134.918 71.3394 139.669C83.6803 138.16 100.41 136.202 113.08 134.124L113.079 134.127ZM108.391 116.686C106.578 113.364 100.081 104.358 98.3455 102.901C97.9165 102.54 97.4028 103.101 97.6657 103.542C98.4148 104.801 104.504 112.407 107.424 117.197C107.666 117.59 108.648 117.15 108.392 116.682L108.391 116.686ZM206.704 87.6667C207.633 87.5985 207.668 89.0384 206.732 89.1066C203.952 89.366 201.156 89.3913 198.372 89.1825C196.991 89.0043 197.131 87.7085 198.216 87.7415C200.496 87.8097 203.802 87.8768 206.705 87.6634L206.704 87.6667ZM202.524 70.686C202.452 70.0095 201.644 70.3175 201.617 70.7586C201.419 75.7255 201.495 80.6996 201.844 85.6581C201.865 85.7652 201.922 85.8615 202.007 85.9299C202.092 85.9983 202.199 86.0342 202.307 86.0313C202.416 86.0284 202.521 85.9868 202.602 85.914C202.683 85.8412 202.735 85.7419 202.75 85.6339C202.98 80.6502 202.904 75.657 202.52 70.6827L202.524 70.686ZM203.344 91.6157C203.344 91.4383 203.273 91.2682 203.148 91.1428C203.022 91.0174 202.852 90.9469 202.675 90.9469C202.498 90.9469 202.328 91.0174 202.202 91.1428C202.077 91.2682 202.006 91.4383 202.006 91.6157C202.105 101.276 201.977 110.414 201.991 119.635C202.012 133.756 201.514 148.625 202.051 162.661C202.116 164.36 203.512 164.266 203.498 162.771C203.313 143.946 203.69 108.94 203.339 91.6124L203.344 91.6157ZM202.367 56.6093C202.294 55.8888 201.17 55.7975 201.102 56.5609C201.011 57.574 201.019 58.9875 201.017 59.9797C201.017 61.2777 202.173 61.3195 202.398 60.467C202.469 59.1806 202.457 57.8909 202.363 56.606L202.367 56.6093ZM209.161 70.5661C209.183 69.9413 208.051 69.7455 207.979 70.4561C207.924 71.0116 207.161 79.3067 206.118 86.0827C205.978 86.9957 206.95 87.2619 207.159 86.4677C208.268 81.2313 208.937 75.911 209.156 70.5628L209.161 70.5661ZM195.873 71.6386C195.713 70.4286 194.691 70.2086 194.677 71.7299C194.654 74.052 196.642 84.8364 197.529 86.6899C197.804 87.2663 198.61 87.0914 198.503 86.5029C197.989 83.7375 196.39 75.581 195.868 71.6353L195.873 71.6386ZM210.503 67.0571C207.921 65.2641 205.579 64.3379 203.126 62.8441C202.785 62.5877 202.374 62.442 201.948 62.4267C201.522 62.4114 201.102 62.5271 200.743 62.7583C198.057 64.3408 195.466 66.0811 192.985 67.9701C191.908 68.871 192.325 69.6553 193.715 69.6201C198.454 69.4826 204.808 69.2659 208.965 68.8347C210.732 68.64 211.689 67.8821 210.495 67.0538L210.503 67.0571ZM201.946 63.5987C204.112 64.9451 206.328 65.9956 208.504 67.4432C204.286 67.826 199.037 67.9932 194.632 68.3419C196.418 67.1726 200.28 64.5106 201.938 63.5954L201.946 63.5987ZM29.579 118.727C35.9425 126.932 40.3744 137.011 41.91 152.365C42.0453 153.718 41.25 153.518 41.0509 152.379C39.1358 141.258 37.4 131.391 29.4734 120.616C28.3457 128.604 29.5246 136.748 32.8713 144.089C33.3938 145.243 32.2707 145.022 31.9979 144.474C28.1207 136.598 26.893 127.68 28.4977 119.05C28.5124 118.931 28.5615 118.819 28.6388 118.728C28.7161 118.636 28.8184 118.569 28.933 118.535C29.0477 118.501 29.1699 118.501 29.2846 118.535C29.3993 118.569 29.5016 118.636 29.579 118.727ZM21.5061 163.57C17.8615 163.676 14.2176 163.335 10.6557 162.556C15.2554 160.623 20.1633 159.529 25.1482 159.323C26.9544 159.246 26.1998 158.093 25.2384 158.134C19.7802 158.309 14.4203 159.633 9.5084 162.02C8.789 162.367 8.2841 162.957 9.3984 163.297C13.37 164.304 17.4685 164.718 21.5611 164.526C22.6248 164.458 22.99 163.553 21.5061 163.57ZM14.784 155.87C17.6374 156.875 17.0599 157.926 14.3979 156.992C10.5582 155.654 6.90315 153.836 3.52 151.58C2.3452 150.752 2.585 150.418 3.74 149.93C11.473 146.676 23.2881 148.17 31.174 151.63C32.593 152.252 32.2597 153.266 30.338 152.479C21.714 148.947 12.3057 148.34 4.4 150.879C7.68821 152.878 11.1666 154.546 14.784 155.859V155.87ZM26.3857 135C27.0644 135.674 26.6673 136.65 25.7323 135.85C20.5799 131.425 15.7388 128.674 8.2423 125.333C9.89853 132.842 13.4057 139.817 18.4448 145.625C18.8254 146.065 18.2028 146.7 17.7936 146.269C12.1177 140.19 8.30061 132.613 6.7936 124.434C6.76791 124.317 6.77624 124.195 6.81759 124.082C6.85895 123.969 6.93162 123.871 7.02705 123.798C7.12249 123.725 7.23672 123.681 7.35632 123.671C7.47593 123.661 7.59592 123.685 7.7022 123.741C12.9129 125.906 22.22 130.853 26.3857 134.989V135ZM41.9375 120.187C42.8681 121.913 43.5404 123.766 43.9329 125.687C44.0517 126.71 43.3202 126.457 43.12 125.917C42.7227 124.549 42.1926 123.222 41.5371 121.957C40.3838 125.145 39.6254 128.462 39.2788 131.835C39.1259 133.089 38.3636 132.32 38.3658 131.794C38.5005 127.831 39.3727 123.928 40.9376 120.284C40.9796 120.191 41.0449 120.112 41.1272 120.052C41.2095 119.993 41.3059 119.956 41.4068 119.945C41.5077 119.934 41.6098 119.949 41.7028 119.99C41.7959 120.031 41.8768 120.095 41.9375 120.176V120.187Z" fill="var(--fill-0, #383E45)"/>
</g>
</svg>
