<svg preserveAspectRatio="none" width="100%" height="100%" overflow="visible" style="display: block;" viewBox="0 0 14.5576 14.5527" fill="none" xmlns="http://www.w3.org/2000/svg">
<g id="p">
<path id="Vector" d="M13.5057 1.04431C12.8296 0.368137 11.9355 0 10.9814 0C10.0272 0 9.13317 0.368137 8.457 1.04431L1.34219 8.15912C1.04919 8.45212 0.853849 8.81275 0.778719 9.21845L0.0274187 12.9825C-0.0627373 13.4182 0.0724967 13.8615 0.388043 14.1695C0.635972 14.4174 0.974057 14.5527 1.31965 14.5527C1.4023 14.5527 1.49245 14.5452 1.5751 14.5301L5.33911 13.7788C5.7373 13.6962 6.10544 13.5009 6.39844 13.2154L13.5133 6.10056C14.1894 5.42439 14.5576 4.53034 14.5576 3.57619C14.5576 2.62204 14.1894 1.72799 13.5133 1.05182L13.5057 1.04431ZM1.34971 13.4182C1.26706 13.4332 1.20696 13.3957 1.17691 13.3656C1.14686 13.3356 1.10929 13.283 1.12432 13.1928L1.76292 10.0148L4.52771 12.7796L1.34971 13.4182ZM12.7094 5.29666L5.66968 12.3363L2.2137 8.88037L9.25338 1.84068C9.7267 1.36737 10.3578 1.12695 10.9814 1.12695C11.605 1.12695 12.2285 1.36737 12.7094 1.84068C13.6635 2.79484 13.6635 4.34251 12.7094 5.29666Z" fill="var(--fill-0, #798184)"/>
</g>
</svg>
