<svg preserveAspectRatio="none" width="100%" height="100%" overflow="visible" style="display: block;" viewBox="0 0 18.03 18.03" fill="none" xmlns="http://www.w3.org/2000/svg">
<g id="Frame">
<path id="Vector" d="M16.152 5.55926L9.39074 0.300513C9.27955 0.226223 9.14883 0.186572 9.01511 0.186572C8.88139 0.186572 8.75067 0.226223 8.63949 0.300513L1.87824 5.55926C1.80311 5.70951 1.65286 5.85976 1.65286 6.01001V14.2738C1.67159 14.8257 1.89921 15.3499 2.28971 15.7404C2.68021 16.1309 3.20443 16.3585 3.75636 16.3773H14.2739C14.8258 16.3585 15.35 16.1309 15.7405 15.7404C16.131 15.3499 16.3586 14.8257 16.3774 14.2738V6.01001C16.3774 5.85976 16.2271 5.70951 16.152 5.55926ZM10.6679 15.1753H7.36236V8.86476H10.6679V15.1753ZM15.1754 14.2738C15.1754 14.5129 15.0804 14.7422 14.9113 14.9112C14.7423 15.0803 14.513 15.1753 14.2739 15.1753H11.8699V8.26376C11.8535 8.10995 11.785 7.96639 11.6756 7.85702C11.5662 7.74765 11.4227 7.67909 11.2689 7.66276H6.76136C6.60755 7.67909 6.46399 7.74765 6.35462 7.85702C6.24525 7.96639 6.17668 8.10995 6.16036 8.26376V15.1753H3.75636C3.51727 15.1753 3.28797 15.0803 3.1189 14.9112C2.94984 14.7422 2.85486 14.5129 2.85486 14.2738V6.31051L9.01511 1.50251L15.1754 6.31051V14.2738Z" fill="var(--fill-0, #798184)"/>
</g>
</svg>
