<svg preserveAspectRatio="none" width="100%" height="100%" overflow="visible" style="display: block;" viewBox="0 0 18.03 18.03" fill="none" xmlns="http://www.w3.org/2000/svg">
<g id="SVG">
<path id="Vector" d="M9.00841 7.67684C8.26885 7.67684 7.67015 8.27553 7.67015 9.01509C7.67015 9.75465 8.26885 10.3533 9.00841 10.3533C9.74797 10.3533 10.3467 9.75465 10.3467 9.01509C10.3467 8.27553 9.74797 7.67684 9.00841 7.67684ZM3.592 7.67684C2.85244 7.67684 2.25375 8.27553 2.25375 9.01509C2.25375 9.75465 2.85244 10.3533 3.592 10.3533C4.33156 10.3533 4.93026 9.75465 4.93026 9.01509C4.93026 8.27553 4.33156 7.67684 3.592 7.67684ZM14.4389 7.67684C13.6993 7.67684 13.1006 8.27553 13.1006 9.01509C13.1006 9.75465 13.6993 10.3533 14.4389 10.3533C15.1785 10.3533 15.7771 9.75465 15.7771 9.01509C15.7771 8.27553 15.1785 7.67684 14.4389 7.67684Z" fill="var(--fill-0, #A7ABB1)"/>
</g>
</svg>
