<svg preserveAspectRatio="none" width="100%" height="100%" overflow="visible" style="display: block;" viewBox="0 0 48 48" fill="none" xmlns="http://www.w3.org/2000/svg">
<g id="AiSparkIcon">
<path id="Vector" d="M24 6L29 19L42 24L29 29L24 42L19 29L6 24L19 19L24 6Z" stroke="var(--stroke-0, #404040)" stroke-width="3" stroke-linecap="round" stroke-linejoin="round"/>
<path id="Vector_2" d="M36 15C37.6569 15 39 13.6569 39 12C39 10.3431 37.6569 9 36 9C34.3431 9 33 10.3431 33 12C33 13.6569 34.3431 15 36 15Z" fill="var(--fill-0, #404040)"/>
<path id="Vector_3" d="M12 39C13.6569 39 15 37.6569 15 36C15 34.3431 13.6569 33 12 33C10.3431 33 9 34.3431 9 36C9 37.6569 10.3431 39 12 39Z" fill="var(--fill-0, #404040)"/>
</g>
</svg>
