<svg preserveAspectRatio="none" width="100%" height="100%" overflow="visible" style="display: block;" viewBox="0 0 48 48" fill="none" xmlns="http://www.w3.org/2000/svg">
<g id="GitBranchIcon">
<path id="Vector" d="M14 43C16.7614 43 19 40.7614 19 38C19 35.2386 16.7614 33 14 33C11.2386 33 9 35.2386 9 38C9 40.7614 11.2386 43 14 43Z" stroke="var(--stroke-0, #404040)" stroke-width="3" stroke-linecap="round" stroke-linejoin="round"/>
<path id="Vector_2" d="M14 15C16.7614 15 19 12.7614 19 10C19 7.23858 16.7614 5 14 5C11.2386 5 9 7.23858 9 10C9 12.7614 11.2386 15 14 15Z" stroke="var(--stroke-0, #404040)" stroke-width="3" stroke-linecap="round" stroke-linejoin="round"/>
<path id="Vector_3" d="M32 35C34.7614 35 37 32.7614 37 30C37 27.2386 34.7614 25 32 25C29.2386 25 27 27.2386 27 30C27 32.7614 29.2386 35 32 35Z" stroke="var(--stroke-0, #404040)" stroke-width="3" stroke-linecap="round" stroke-linejoin="round"/>
<path id="Vector_4" d="M14 15V33" stroke="var(--stroke-0, #404040)" stroke-width="3" stroke-linecap="round" stroke-linejoin="round"/>
<path id="Vector_5" d="M14.9023 22C22.3309 22 26.5095 24 27.9023 26" stroke="var(--stroke-0, #404040)" stroke-width="3" stroke-linecap="round" stroke-linejoin="round"/>
</g>
</svg>
