<svg preserveAspectRatio="none" width="100%" height="100%" overflow="visible" style="display: block;" viewBox="-4 -4 48 48" fill="none" xmlns="http://www.w3.org/2000/svg">
<g id="OfflineCloud">
<path id="Vector" d="M12.5 26.6667C10.5109 26.6667 8.60322 25.8765 7.1967 24.47C5.79018 23.0634 5 21.1558 5 19.1667C5 17.1775 5.79018 15.2699 7.1967 13.8634C8.60322 12.4568 10.5109 11.6667 12.5 11.6667C16 4.99999 24 4.99997 27.5 11.6667C29.4891 11.6667 31.3968 12.4568 32.8033 13.8634C34.2098 15.2699 35 17.1775 35 19.1667C35 21.1558 34.2098 23.0634 32.8033 24.47C31.3968 25.8765 29.4891 26.6667 27.5 26.6667H12.5Z" stroke="var(--stroke-0, #404040)" stroke-width="2.5" stroke-linecap="round" stroke-linejoin="round"/>
<path id="Vector_2" d="M7 6.5L32 31.5" stroke="var(--stroke-0, #404040)" stroke-width="2.5" stroke-linecap="round" stroke-linejoin="round"/>
</g>
</svg>
