<svg preserveAspectRatio="none" width="100%" height="100%" overflow="visible" style="display: block;" viewBox="0 0 48 48" fill="none" xmlns="http://www.w3.org/2000/svg">
<g id="PaletteIcon">
<path id="Vector" d="M24 44C13 44 4 35 4 24C4 13 13 4 24 4C35 4 44.707 13.5 42.207 24C41.3737 27.5 40.707 27.5 38.207 29L35.207 29.5C33 30 32 31 32 33C32 35 34 37 33 39C32 43 28 44 24 44Z" stroke="var(--stroke-0, #404040)" stroke-width="3" stroke-linecap="round" stroke-linejoin="round"/>
<path id="Vector_2" d="M13.707 19C15.3639 19 16.707 17.6569 16.707 16C16.707 14.3431 15.3639 13 13.707 13C12.0502 13 10.707 14.3431 10.707 16C10.707 17.6569 12.0502 19 13.707 19Z" fill="var(--fill-0, #404040)"/>
<path id="Vector_3" d="M11.707 27C13.3639 27 14.707 25.6569 14.707 24C14.707 22.3431 13.3639 21 11.707 21C10.0502 21 8.70703 22.3431 8.70703 24C8.70703 25.6569 10.0502 27 11.707 27Z" fill="var(--fill-0, #404040)"/>
<path id="Vector_4" d="M14.707 36C16.3639 36 17.707 34.6569 17.707 33C17.707 31.3431 16.3639 30 14.707 30C13.0502 30 11.707 31.3431 11.707 33C11.707 34.6569 13.0502 36 14.707 36Z" fill="var(--fill-0, #404040)"/>
<path id="Vector_5" d="M20.707 14C22.3639 14 23.707 12.6569 23.707 11C23.707 9.34315 22.3639 8 20.707 8C19.0502 8 17.707 9.34315 17.707 11C17.707 12.6569 19.0502 14 20.707 14Z" fill="var(--fill-0, #404040)"/>
</g>
</svg>
